<svg xmlns="http://www.w3.org/2000/svg" xmlns:xlink="http://www.w3.org/1999/xlink" width="319.392" height="150" viewBox="0 0 319.392 150">
  <defs>
    <clipPath id="clip-path">
      <rect id="SVGID" width="319.392" height="150" fill="none"/>
    </clipPath>
  </defs>
  <g id="그룹_72" data-name="그룹 72" clip-path="url(#clip-path)">
    <path id="패스_179" data-name="패스 179" d="M438.656,71.376h7.3L431.119,83.558q1.855,6.872,3.711,13.743h-7.207l-2.048-9.2L414.41,97.3h-6.4l11.066-25.925h5.908l-7.4,17.34,21.069-17.34" transform="translate(-302.543 -52.925)" fill="#fff"/>
    <path id="패스_180" data-name="패스 180" d="M562.77,115.655h-24.8l2.651-6.21h24.8l-2.651,6.21" transform="translate(-398.902 -81.153)" fill="#fff"/>
    <path id="패스_181" data-name="패스 181" d="M642.461,88.051c1.121,2.095,4.028,2.132,6.183,2.172,2.622-.022,6.038-.306,8.037-2.172l.232-.543h5.909l-1.2,2.817c-2.673,4.932-10.477,5.733-15.5,5.8-3.143-.052-12.2-.643-10.542-5.8l6.62-15.508c2.663-4.963,10.486-5.718,15.5-5.8,2.987.044,12.431.7,10.542,5.8l-1.2,2.817h-5.909l.232-.543c-.887-2.122-4.2-2.141-6.183-2.172-2.622.022-6.038.306-8.037,2.172l-4.679,10.961" transform="translate(-471.135 -51.174)" fill="#fff"/>
    <path id="패스_182" data-name="패스 182" d="M773.06,74.816,764.21,95.55H758.3l3.737-8.755h-3.378a2.821,2.821,0,0,1-2.706-2.024l-1.233-4.186h9.066l2.427-3.409c-.832-2.208-4.211-2.227-6.217-2.258-2.622.022-6.039.306-8.038,2.172l-7.88,18.46h-5.909l8.85-20.734c2.663-4.963,10.486-5.718,15.5-5.8,2.976.044,12.465.7,10.542,5.8" transform="translate(-547.355 -51.174)" fill="#fff"/>
    <path id="패스_183" data-name="패스 183" d="M861.541,97.3q-.353-7.16-.705-14.32L854.723,97.3h-5.909L859.88,71.377h6.4q.479,9.145.958,18.291l16.541-18.291h6.4L879.1,97.3h-5.876l6.112-14.32L866.378,97.3Z" transform="translate(-629.396 -52.926)" fill="#fff"/>
    <path id="패스_184" data-name="패스 184" d="M1008.464,71.376H986.973L975.907,97.3h5.909l3.737-8.755h15.485c4.848-.133,8.337-4.474,10.208-8.552,1.28-3.153,2.056-8.573-2.781-8.619M1004.915,80s-1.043,2.443-2.038,2.341H988.2l2.028-4.751H1004.9c1.039,0,.01,2.409.01,2.409" transform="translate(-723.635 -52.925)" fill="#fff"/>
    <path id="패스_185" data-name="패스 185" d="M362.441,251.976l-5.744,14.88H338.452l5.744-14.88h-8.079l-15.133,39.2h8.079l5.764-14.931h18.245l-5.764,14.931h8.079l15.133-39.2Z" transform="translate(-238.01 -186.84)" fill="#fff"/>
    <path id="패스_186" data-name="패스 186" d="M508.939,248.4c-7.174.112-17.644,1.6-21.189,8.773l-9.052,23.45c-2.12,7.515,9.382,8.7,14.416,8.774,7.074-.11,17.787-1.572,21.19-8.774l9.052-23.45c2.268-7.5-9.535-8.7-14.416-8.773m-1.345,28.786c-2.719,2.762-7.357,3.215-11.035,3.284-2.717-.037-7.517-.138-8.455-3.284l6.4-16.574c2.734-2.787,7.277-3.276,11.01-3.335,2.724.038,7.533.157,8.435,3.335l-6.354,16.574" transform="translate(-354.763 -184.192)" fill="#fff"/>
    <path id="패스_187" data-name="패스 187" d="M669.608,251.976l-10.756,27.862c-2.69,2.77-7.332,3.215-10.991,3.284-2.717-.037-7.517-.138-8.455-3.284l10.755-27.862h-8.08L630,283.276c-2.121,7.515,9.382,8.7,14.416,8.774,7.074-.11,17.788-1.572,21.19-8.774l12.083-31.3Z" transform="translate(-466.953 -186.84)" fill="#fff"/>
    <path id="패스_188" data-name="패스 188" d="M808.4,266.856H789.31c-1.42,0-.391-2.668-.391-2.668s1.09-2.822,2.51-2.822h27.658l3.625-9.389h-28.9c-6.64.012-11.277,6.68-13.549,12.212-1.557,4.312-2.55,12.293,4.313,12.059h19.09c1.42,0,.371,2.72.371,2.72s-1.089,2.822-2.51,2.822H773.868l-3.625,9.389h28.946c6.625-.013,11.241-6.7,13.5-12.212,1.56-4.329,2.537-12.344-4.293-12.11" transform="translate(-571.135 -186.84)" fill="#fff"/>
    <path id="패스_189" data-name="패스 189" d="M941.493,281.788l2.947-7.633h26.227l3.625-7.3H947.258l2.119-5.491h27.034l3.625-9.389H944.922l-15.133,39.2h51.474l4.732-9.389Z" transform="translate(-689.439 -186.84)" fill="#fff"/>
    <path id="패스_190" data-name="패스 190" d="M99.873,50.42,83.49,0,67.107,50.42H0l46.659,38.3L25.432,150l45.447-30.792L77.5,104.079,42,127.446,56.361,85.986,23.114,58.692h50L83.49,26.768,93.863,58.692H312.869l6.523-8.272Z" transform="translate(0 0)" fill="#b40019"/>
  </g>
</svg>
