<svg xmlns="http://www.w3.org/2000/svg" width="350" height="70" viewBox="0 0 350 70">
  <g id="k-st" transform="translate(-856.72 -1182.786)">
    <path id="패스_368" data-name="패스 368" d="M1198.695,1185.534a5.236,5.236,0,0,1,5.248,5.193v54.119a5.236,5.236,0,0,1-5.248,5.193H864.745a5.236,5.236,0,0,1-5.248-5.193v-54.119a5.236,5.236,0,0,1,5.248-5.193Zm0-2.748H864.745a7.992,7.992,0,0,0-8.025,7.941v54.119a7.993,7.993,0,0,0,8.025,7.941h333.949a7.993,7.993,0,0,0,8.025-7.941v-54.119a7.992,7.992,0,0,0-8.025-7.941" transform="translate(0)" fill="#fff"/>
    <path id="패스_369" data-name="패스 369" d="M1490.582,1292.992c1.773,0,4.185.056,7.167.166l.048,0v-1.586h-1.727c-1.4,0-2.275-.267-2.61-.793s-.513-2.428-.513-5.632v-8.08c1.364-.046,2.558-.07,3.55-.07,3.648,0,5.774.157,6.317.467s.8,1.183.8,2.609v1.868h1.655l-.024-5.63c0-.829.063-2.7.189-5.558l0-.049h-1.58l-.242,1.838a4.031,4.031,0,0,1-.52,1.808,1.754,1.754,0,0,1-1.187.375c-1.769.126-3.861.189-6.219.189-.894,0-1.818-.023-2.745-.069v-7.479c0-1.652.094-3.516.28-5.541a51.429,51.429,0,0,1,5.611-.3,25.76,25.76,0,0,1,6.514.843,28.451,28.451,0,0,1,.56,4.365l0,.044h1.6v-.046a27.844,27.844,0,0,1,.826-7.156l.016-.054-.056-.006a36.2,36.2,0,0,0-4.028-.213l-13.6.26c-2.1,0-4.475-.056-7.072-.165l-.049,0v1.586h1.75c1.4,0,2.27.255,2.6.759s.5,2.379.5,5.553v17.848c0,3.254-.153,5.163-.455,5.673s-1.123.757-2.456.757h-1.94v1.586l.049,0c2.841-.11,5.188-.166,6.977-.166" transform="translate(-433.697 -53.791)" fill="#fff"/>
    <path id="패스_370" data-name="패스 370" d="M1595.847,1298.878a16.669,16.669,0,0,0,4.006-11.354c0-4.18-1.163-7.58-3.455-10.1s-5.5-3.807-9.539-3.807a12.828,12.828,0,0,0-9.934,4.1c-2.472,2.72-3.726,6.356-3.726,10.806a18.613,18.613,0,0,0,1.6,7.887,12.208,12.208,0,0,0,4.361,5.244,11.849,11.849,0,0,0,6.578,1.8,12.924,12.924,0,0,0,10.108-4.57m-4.13,1.285A7.971,7.971,0,0,1,1587,1301.6a8.465,8.465,0,0,1-5.172-1.687,11.444,11.444,0,0,1-3.617-5.078,21.56,21.56,0,0,1-1.353-7.978,15.029,15.029,0,0,1,1.151-6.066,9,9,0,0,1,3.169-3.971,8.469,8.469,0,0,1,4.805-1.353,9.118,9.118,0,0,1,5.279,1.535,10.2,10.2,0,0,1,3.511,4.58,19,19,0,0,1,1.284,7.347,18.557,18.557,0,0,1-1.161,6.951,9.473,9.473,0,0,1-3.179,4.285" transform="translate(-495.746 -63.697)" fill="#fff"/>
    <path id="패스_371" data-name="패스 371" d="M1685.844,1273.612a12.828,12.828,0,0,0-9.934,4.1c-2.472,2.72-3.726,6.356-3.726,10.806a18.613,18.613,0,0,0,1.6,7.887,12.212,12.212,0,0,0,4.361,5.244,11.849,11.849,0,0,0,6.578,1.8,12.923,12.923,0,0,0,10.108-4.57,16.668,16.668,0,0,0,4.007-11.354c0-4.18-1.163-7.58-3.455-10.1s-5.5-3.807-9.539-3.807m4.857,26.55a7.97,7.97,0,0,1-4.717,1.433,8.465,8.465,0,0,1-5.172-1.687,11.44,11.44,0,0,1-3.617-5.078,21.56,21.56,0,0,1-1.354-7.978,15.029,15.029,0,0,1,1.151-6.066,9,9,0,0,1,3.17-3.971,8.47,8.47,0,0,1,4.806-1.353,9.119,9.119,0,0,1,5.279,1.535,10.206,10.206,0,0,1,3.511,4.58,19,19,0,0,1,1.284,7.347,18.557,18.557,0,0,1-1.161,6.951,9.469,9.469,0,0,1-3.179,4.285" transform="translate(-564.235 -63.697)" fill="#fff"/>
    <path id="패스_372" data-name="패스 372" d="M1788.741,1281.988a11.1,11.1,0,0,0-3.135-4.328,10.816,10.816,0,0,0-4.594-2.3,20.771,20.771,0,0,0-4.929-.53l-3.972.081-4.88.041c-.689,0-2.044-.034-4.026-.1l-.054,0v1.378l1.5.251c1.049.166,1.376.325,1.465.43a4.2,4.2,0,0,1,.323,1.739c.145,1.74.218,3.838.218,6.235v5.893c0,5.194-.1,8.889-.288,10.985l-1.69,1.12v1.061l.058-.006a36.355,36.355,0,0,1,3.732-.244c.574,0,1.971.048,4.153.142l2.233.061a14.074,14.074,0,0,0,10.824-4.508,16.259,16.259,0,0,0,4.141-11.4,15.705,15.705,0,0,0-1.074-6.005m-2.858,6.818c0,4.5-1.136,7.979-3.378,10.328-1.856,1.932-4.5,2.911-7.854,2.911a26.75,26.75,0,0,1-4.269-.4c-.142-2.116-.214-4.419-.214-6.845V1281.51a40.578,40.578,0,0,1,.213-4.385,28.561,28.561,0,0,1,4.47-.42c3.6,0,6.363,1.041,8.225,3.092s2.808,5.085,2.808,9.008" transform="translate(-628.125 -64.526)" fill="#fff"/>
    <path id="패스_373" data-name="패스 373" d="M1051.335,1265.16a2.288,2.288,0,0,1-.9-.57l-1.866-1.689-19.953-17.672,10.945-9.566a55.705,55.705,0,0,1,6.807-5.438,7.193,7.193,0,0,1,3.347-.708h2.274v-3.091l-.7.052c-1.795.131-3.454.2-4.932.2-1.423,0-3.247-.067-5.421-.2l-.695-.042v2.41l-8.339,8.212c-2.679,2.624-4.631,4.485-5.8,5.533-1.008.9-2.2,1.9-3.552,2.963v-6.721c0-4.13.044-6.654.132-7.505.1-.926.325-1.24.454-1.345.087-.071.5-.308,2.194-.379l3.012-.108v-3.036l-.672.018c-4.962.132-8.072.2-9.242.2-1.631,0-4.3-.068-7.943-.2l-.678-.025v3.065h3.084c1.28,0,2.093.223,2.289.625.126.259.42,1.613.42,8.575v19.1c0,5.814-.307,6.8-.4,6.97-.069.121-.441.517-2.307.517H1009.8v3.07l.683-.03c3.021-.132,5.884-.2,8.509-.2,2.505,0,5.42.067,8.661.2l.681.028V1265.3h-2.916c-2.2,0-2.588-.491-2.653-.64-.067-.188-.223-1.222-.223-6.733v-8.708a2.054,2.054,0,0,1,.03-.379c.147.108.4.306.788.659l20.882,18.854.013.011.294-.025c1.512-.131,2.927-.2,4.2-.2,1.218,0,2.653.066,4.266.2l.709.057v-3.1h-.653a6.813,6.813,0,0,1-1.744-.144" transform="translate(-104.908 -29.905)" fill="#fff"/>
    <path id="패스_374" data-name="패스 374" d="M1234.6,1291.016c4.337,0,7.856-1.14,10.46-3.388a10.406,10.406,0,0,0,3.927-8.094,7.812,7.812,0,0,0-1.019-4.053,6.071,6.071,0,0,0-2.721-2.488,23.784,23.784,0,0,0-6.5-1.239,27.831,27.831,0,0,1-6.261-1.042,4.916,4.916,0,0,1-2.33-1.912,5.692,5.692,0,0,1-.865-3.171,6.14,6.14,0,0,1,2.115-4.8,8.525,8.525,0,0,1,5.824-1.872,12.866,12.866,0,0,1,4.326.731,5.931,5.931,0,0,1,2.528,1.369,4.373,4.373,0,0,1,.479,2.44v1.908h1.7v-.045a26.823,26.823,0,0,1,.7-6.414l.01-.038-.037-.016a24.865,24.865,0,0,0-4.7-1.528,22.44,22.44,0,0,0-4.677-.5c-3.857,0-6.923.975-9.11,2.9a9.523,9.523,0,0,0-3.3,7.461,8.732,8.732,0,0,0,1.077,4.505,6.452,6.452,0,0,0,2.977,2.661,25.367,25.367,0,0,0,7.162,1.261,20.013,20.013,0,0,1,5.41.951,4.889,4.889,0,0,1,2.26,1.9,5.778,5.778,0,0,1,.808,3.13,6.633,6.633,0,0,1-2.382,5.226,10.085,10.085,0,0,1-6.768,2.061,14.616,14.616,0,0,1-3.806-.476,9.488,9.488,0,0,1-3.036-1.378,3.027,3.027,0,0,1-1.078-1.121,9.614,9.614,0,0,1-.229-2.776v-1.21h-1.675v.046a48.441,48.441,0,0,1-.4,7.163l-.005.036.034.013a28.366,28.366,0,0,0,4.582,1.341,23.1,23.1,0,0,0,4.514.455" transform="translate(-254.903 -52.086)" fill="#fff"/>
    <path id="패스_375" data-name="패스 375" d="M1326.095,1280.987c.085,1.741.128,3.678.128,5.758v10.693c0,2.3-.063,4.2-.187,5.651a1.914,1.914,0,0,1-.452,1.251,2.63,2.63,0,0,1-1.579.316h-1.621v1.278l.05,0c2.164-.087,4.041-.131,5.579-.131s3.414.044,5.616.131l.05,0v-1.278h-1.452c-1.2,0-1.9-.2-2.092-.582s-.295-2.6-.295-6.543v-10.674c0-2.047.068-4.022.2-5.87h1.416c1.735,0,3.309.05,4.678.15a1.384,1.384,0,0,1,.885.274,3.264,3.264,0,0,1,.307,1.479l.191,2.5h1.271v-.047c.038-1.95.176-4,.412-6.1l.006-.054-10.41.132c-1.2,0-5.2-.044-11.891-.131h-.053l0,.053c.149,1.676.224,2.979.224,3.872l-.038,2.277h1.272l.266-2.552c.1-.951.3-1.5.589-1.637a28.125,28.125,0,0,1,5.062-.211Z" transform="translate(-318.337 -67.501)" fill="#fff"/>
    <rect id="사각형_722" data-name="사각형 722" width="7.768" height="2.686" transform="translate(953.783 1225.846)" fill="#fff"/>
  </g>
</svg>
