<svg xmlns="http://www.w3.org/2000/svg" xmlns:xlink="http://www.w3.org/1999/xlink" width="49" height="49" viewBox="0 0 49 49">
  <defs>
    <clipPath id="clip-path">
      <rect id="사각형_384" data-name="사각형 384" width="49" height="49" fill="#fff"/>
    </clipPath>
  </defs>
  <g id="icon_check" clip-path="url(#clip-path)">
    <g id="checked_3_" data-name="checked (3)">
      <g id="그룹_93" data-name="그룹 93" transform="translate(11.634 6.156)">
        <g id="그룹_92" data-name="그룹 92">
          <path id="패스_361" data-name="패스 361" d="M41.9,3.683a1.846,1.846,0,0,0-2.611,0l-22.155,22.1L9.141,17.095a1.847,1.847,0,1,0-2.717,2.5l9.3,10.095a1.844,1.844,0,0,0,1.319.6h.039a1.849,1.849,0,0,0,1.3-.539L41.9,6.3A1.846,1.846,0,0,0,41.9,3.683Z" transform="translate(-5.936 -3.141)" fill="#fff"/>
        </g>
      </g>
      <g id="그룹_95" data-name="그룹 95">
        <g id="그룹_94" data-name="그룹 94">
          <path id="패스_362" data-name="패스 362" d="M47.153,22.653A1.847,1.847,0,0,0,45.307,24.5,20.807,20.807,0,1,1,24.5,3.693,1.847,1.847,0,1,0,24.5,0,24.5,24.5,0,1,0,49,24.5,1.847,1.847,0,0,0,47.153,22.653Z" fill="#fff"/>
        </g>
      </g>
    </g>
  </g>
</svg>
