<svg xmlns="http://www.w3.org/2000/svg" xmlns:xlink="http://www.w3.org/1999/xlink" width="220" height="45" viewBox="0 0 220 45">
  <defs>
    <clipPath id="clip-path">
      <rect id="SVGID" width="97" height="45" transform="translate(0 0)" fill="none"/>
    </clipPath>
  </defs>
  <g id="logo" transform="translate(-185 -150.447)">
    <g id="k-st" transform="translate(299.079 158.235)">
      <path id="패스_368" data-name="패스 368" d="M960.212,1183.618a1.585,1.585,0,0,1,1.588,1.571v16.378a1.585,1.585,0,0,1-1.588,1.572H859.149a1.585,1.585,0,0,1-1.588-1.572v-16.378a1.585,1.585,0,0,1,1.588-1.571Zm0-.832H859.149a2.419,2.419,0,0,0-2.429,2.4v16.378a2.419,2.419,0,0,0,2.429,2.4H960.212a2.419,2.419,0,0,0,2.429-2.4v-16.378a2.419,2.419,0,0,0-2.429-2.4" transform="translate(-856.72 -1182.786)" fill="#1b1d1f"/>
      <path id="패스_369" data-name="패스 369" d="M1485.682,1269.5c.537,0,1.266.017,2.169.05h.015v-.48h-.522c-.422,0-.688-.081-.79-.24a4.923,4.923,0,0,1-.155-1.7v-2.445c.413-.014.774-.021,1.074-.021a6.565,6.565,0,0,1,1.912.141c.162.092.243.358.243.79v.565h.5l-.007-1.7c0-.251.019-.817.057-1.682v-.015h-.478l-.073.556a1.219,1.219,0,0,1-.157.547.53.53,0,0,1-.359.114c-.535.038-1.168.057-1.882.057-.271,0-.55-.007-.831-.021v-2.263c0-.5.028-1.064.085-1.677a15.573,15.573,0,0,1,1.7-.092,7.794,7.794,0,0,1,1.971.255,8.587,8.587,0,0,1,.17,1.321v.013h.486v-.014a8.427,8.427,0,0,1,.25-2.166l0-.016-.017,0a10.958,10.958,0,0,0-1.219-.064l-4.117.079c-.634,0-1.354-.017-2.14-.05h-.015v.48h.53c.422,0,.687.077.786.23a4.857,4.857,0,0,1,.152,1.681v5.4a5.52,5.52,0,0,1-.138,1.717c-.09.152-.34.229-.743.229h-.587v.48h.015c.86-.033,1.57-.05,2.111-.05" transform="translate(-1425.106 -1252.426)" fill="#1b1d1f"/>
      <path id="패스_370" data-name="패스 370" d="M1580.054,1281.258a5.045,5.045,0,0,0,1.212-3.436,4.394,4.394,0,0,0-1.045-3.058,3.719,3.719,0,0,0-2.887-1.152,3.882,3.882,0,0,0-3.006,1.241,4.7,4.7,0,0,0-1.127,3.27,5.633,5.633,0,0,0,.484,2.387,3.7,3.7,0,0,0,1.32,1.587,3.587,3.587,0,0,0,1.991.544,3.911,3.911,0,0,0,3.059-1.383m-1.25.389a2.412,2.412,0,0,1-1.427.434,2.562,2.562,0,0,1-1.565-.51,3.463,3.463,0,0,1-1.095-1.537,6.524,6.524,0,0,1-.41-2.414,4.545,4.545,0,0,1,.349-1.836,2.724,2.724,0,0,1,.959-1.2,2.563,2.563,0,0,1,1.454-.409,2.759,2.759,0,0,1,1.6.465,3.087,3.087,0,0,1,1.063,1.386,5.748,5.748,0,0,1,.388,2.223,5.612,5.612,0,0,1-.351,2.1,2.865,2.865,0,0,1-.962,1.3" transform="translate(-1506.399 -1265.402)" fill="#1b1d1f"/>
      <path id="패스_371" data-name="패스 371" d="M1676.318,1273.612a3.882,3.882,0,0,0-3.006,1.241,4.7,4.7,0,0,0-1.128,3.27,5.634,5.634,0,0,0,.484,2.387,3.7,3.7,0,0,0,1.32,1.587,3.587,3.587,0,0,0,1.991.544,3.911,3.911,0,0,0,3.059-1.383,5.044,5.044,0,0,0,1.213-3.436,4.393,4.393,0,0,0-1.046-3.058,3.719,3.719,0,0,0-2.887-1.152m1.47,8.035a2.412,2.412,0,0,1-1.427.434,2.562,2.562,0,0,1-1.565-.51,3.461,3.461,0,0,1-1.095-1.537,6.523,6.523,0,0,1-.41-2.414,4.548,4.548,0,0,1,.349-1.836,2.724,2.724,0,0,1,.959-1.2,2.564,2.564,0,0,1,1.454-.409,2.759,2.759,0,0,1,1.6.465,3.089,3.089,0,0,1,1.062,1.386,5.748,5.748,0,0,1,.389,2.223,5.615,5.615,0,0,1-.352,2.1,2.865,2.865,0,0,1-.962,1.3" transform="translate(-1596.154 -1265.402)" fill="#1b1d1f"/>
      <path id="패스_372" data-name="패스 372" d="M1770.9,1277a3.359,3.359,0,0,0-.949-1.31,3.272,3.272,0,0,0-1.39-.7,6.278,6.278,0,0,0-1.492-.16l-1.2.024-1.477.012c-.209,0-.619-.01-1.219-.031h-.016v.417l.453.076c.317.05.416.1.443.13a1.267,1.267,0,0,1,.1.526c.044.527.066,1.162.066,1.887v1.784c0,1.572-.029,2.69-.087,3.324l-.511.339v.321l.017,0a11.028,11.028,0,0,1,1.129-.074c.174,0,.6.015,1.257.043l.676.018a4.259,4.259,0,0,0,3.276-1.364,4.92,4.92,0,0,0,1.253-3.448,4.753,4.753,0,0,0-.325-1.817m-.865,2.063a4.378,4.378,0,0,1-1.022,3.126,3.155,3.155,0,0,1-2.377.881,8.11,8.11,0,0,1-1.292-.121c-.043-.64-.065-1.337-.065-2.072v-4.022a12.3,12.3,0,0,1,.064-1.327,8.643,8.643,0,0,1,1.353-.127,3.206,3.206,0,0,1,2.489.936,3.945,3.945,0,0,1,.85,2.726" transform="translate(-1678.927 -1266.502)" fill="#1b1d1f"/>
      <path id="패스_373" data-name="패스 373" d="M1022.373,1238.147a.694.694,0,0,1-.272-.172l-.565-.511-6.039-5.348,3.312-2.9a16.866,16.866,0,0,1,2.06-1.646,2.178,2.178,0,0,1,1.013-.214h.688v-.935l-.213.016c-.543.04-1.045.06-1.493.06-.431,0-.983-.02-1.641-.06l-.21-.013v.729l-2.524,2.485c-.811.794-1.4,1.357-1.756,1.674-.305.273-.667.574-1.075.9v-2.034c0-1.25.013-2.014.04-2.271.029-.28.1-.375.137-.407s.152-.093.664-.115l.911-.033v-.919l-.2.006c-1.5.04-2.443.06-2.8.06-.494,0-1.3-.021-2.4-.06l-.205-.007v.927h.933c.387,0,.633.067.693.189a10.843,10.843,0,0,1,.127,2.6v5.78a7.5,7.5,0,0,1-.121,2.109c-.021.037-.133.156-.7.156h-.933v.929l.207-.009c.915-.04,1.781-.06,2.575-.06.758,0,1.64.02,2.621.06l.206.008v-.929h-.882c-.666,0-.783-.149-.8-.194a12.232,12.232,0,0,1-.068-2.037v-2.635a.623.623,0,0,1,.009-.115c.045.033.12.093.239.2l6.32,5.706,0,0,.089-.008c.458-.04.886-.06,1.272-.06.368,0,.8.02,1.291.06l.215.017v-.937h-.2a2.073,2.073,0,0,1-.528-.044" transform="translate(-995.225 -1222.269)" fill="#1b1d1f"/>
      <path id="패스_374" data-name="패스 374" d="M1228.009,1267.2a4.7,4.7,0,0,0,3.165-1.026,3.149,3.149,0,0,0,1.189-2.449,2.365,2.365,0,0,0-.308-1.227,1.839,1.839,0,0,0-.824-.753,7.2,7.2,0,0,0-1.967-.375,8.419,8.419,0,0,1-1.895-.315,1.487,1.487,0,0,1-.705-.578,1.723,1.723,0,0,1-.262-.96,1.858,1.858,0,0,1,.64-1.453,2.58,2.58,0,0,1,1.762-.566,3.9,3.9,0,0,1,1.309.221,1.8,1.8,0,0,1,.765.414,1.324,1.324,0,0,1,.145.738v.578h.514v-.014a8.119,8.119,0,0,1,.211-1.941l0-.012-.011,0a7.531,7.531,0,0,0-1.422-.462,6.791,6.791,0,0,0-1.416-.152,4.049,4.049,0,0,0-2.757.877,2.882,2.882,0,0,0-1,2.258,2.643,2.643,0,0,0,.326,1.363,1.952,1.952,0,0,0,.9.805,7.671,7.671,0,0,0,2.167.382,6.056,6.056,0,0,1,1.637.288,1.479,1.479,0,0,1,.684.576,1.749,1.749,0,0,1,.245.947,2.008,2.008,0,0,1-.721,1.582,3.053,3.053,0,0,1-2.048.624,4.427,4.427,0,0,1-1.152-.144,2.877,2.877,0,0,1-.919-.417.918.918,0,0,1-.326-.339,2.91,2.91,0,0,1-.069-.84v-.366h-.507v.014a14.683,14.683,0,0,1-.12,2.168l0,.011.01,0a8.609,8.609,0,0,0,1.387.406,7,7,0,0,0,1.366.138" transform="translate(-1190.792 -1250.209)" fill="#1b1d1f"/>
      <path id="패스_375" data-name="패스 375" d="M1319.651,1279.731c.026.527.039,1.113.039,1.742v3.236c0,.695-.019,1.27-.057,1.71a.579.579,0,0,1-.137.379.8.8,0,0,1-.478.1h-.49v.387h.015c.655-.026,1.223-.04,1.688-.04s1.033.013,1.7.04h.015v-.387h-.439c-.363,0-.576-.059-.633-.176a10.24,10.24,0,0,1-.089-1.98v-3.23c0-.619.021-1.217.061-1.776h.429c.525,0,1,.015,1.416.045a.42.42,0,0,1,.268.083.991.991,0,0,1,.093.448l.058.756h.385v-.014c.011-.59.053-1.211.125-1.846l0-.016-3.15.04c-.363,0-1.574-.013-3.6-.04h-.016v.016c.045.507.068.9.068,1.172l-.011.689h.385l.08-.773c.029-.288.089-.455.178-.5a8.522,8.522,0,0,1,1.532-.064Z" transform="translate(-1273.942 -1270.44)" fill="#1b1d1f"/>
      <rect id="사각형_722" data-name="사각형 722" width="2.351" height="0.813" transform="translate(29.374 13.031)" fill="#1b1d1f"/>
    </g>
    <g id="k-camp" transform="translate(185 150.447)">
      <g id="그룹_1" data-name="그룹 1" transform="translate(0 0)" clip-path="url(#clip-path)">
        <path id="패스_1" data-name="패스 1" d="M363.306,213.376h2.215l-4.5,3.687,1.125,4.159H359.96l-.621-2.783-3.385,2.783h-1.939l3.355-7.846h1.791l-2.244,5.248,6.388-5.248" transform="translate(-322.035 -208.176)" fill="#1a1311"/>
        <path id="패스_2" data-name="패스 2" d="M491.487,253.324h-7.521l.8-1.879h7.521l-.8,1.879" transform="translate(-441.801 -243.267)" fill="#1a1311"/>
        <path id="패스_3" data-name="패스 3" d="M583.527,216.775c.34.634,1.221.645,1.875.657a3.722,3.722,0,0,0,2.437-.657l.07-.164H589.7l-.365.852c-.81,1.493-3.176,1.735-4.7,1.756-.953-.016-3.7-.195-3.2-1.756l2.007-4.693c.807-1.5,3.179-1.73,4.7-1.756.906.013,3.769.212,3.2,1.756l-.365.852h-1.792l.07-.164c-.269-.642-1.275-.648-1.875-.657a3.721,3.721,0,0,0-2.437.657l-1.419,3.317" transform="translate(-531.58 -205.999)" fill="#1a1311"/>
        <path id="패스_4" data-name="패스 4" d="M694.75,212.77l-2.683,6.275h-1.792l1.133-2.649h-1.024a.855.855,0,0,1-.82-.612l-.374-1.267h2.749l.736-1.032c-.252-.668-1.277-.674-1.885-.683a3.721,3.721,0,0,0-2.437.657l-2.389,5.587h-1.792l2.683-6.275c.807-1.5,3.179-1.73,4.7-1.756.9.013,3.779.212,3.2,1.756" transform="translate(-626.315 -205.999)" fill="#1a1311"/>
        <path id="패스_5" data-name="패스 5" d="M798.673,221.223q-.107-2.167-.214-4.334l-1.853,4.334h-1.792l3.355-7.846h1.939q.145,2.768.291,5.535l5.015-5.535h1.939L804,221.223h-1.782l1.853-4.334-3.93,4.334Z" transform="translate(-728.285 -208.177)" fill="#1a1311"/>
        <path id="패스_6" data-name="패스 6" d="M931.779,213.376h-6.516l-3.355,7.846H923.7l1.133-2.649h4.7c1.47-.04,2.528-1.354,3.1-2.588.388-.954.623-2.594-.843-2.608m-1.076,2.608s-.316.739-.618.709h-4.449l.615-1.438H930.7c.315,0,0,.729,0,.729" transform="translate(-845.416 -208.176)" fill="#1a1311"/>
        <path id="패스_7" data-name="패스 7" d="M279.554,393.976l-1.742,4.5H272.28l1.742-4.5h-2.45l-4.588,11.864h2.45l1.748-4.519h5.532l-1.748,4.519h2.45L282,393.976Z" transform="translate(-241.826 -374.648)" fill="#1a1311"/>
        <path id="패스_8" data-name="패스 8" d="M433.687,390.4c-2.175.034-5.35.483-6.425,2.655l-2.745,7.1c-.643,2.274,2.845,2.633,4.371,2.655,2.145-.033,5.393-.476,6.425-2.655l2.745-7.1c.688-2.269-2.891-2.634-4.371-2.655m-.408,8.711a4.861,4.861,0,0,1-3.346.994c-.824-.011-2.279-.042-2.564-.994l1.94-5.016a4.782,4.782,0,0,1,3.338-1.009c.826.011,2.284.048,2.558,1.009l-1.926,5.016" transform="translate(-386.939 -371.355)" fill="#1a1311"/>
        <path id="패스_9" data-name="패스 9" d="M587.829,393.976l-3.261,8.432a4.81,4.81,0,0,1-3.332.994c-.824-.011-2.279-.042-2.564-.994l3.261-8.432h-2.45l-3.664,9.472c-.643,2.274,2.845,2.633,4.371,2.655,2.145-.033,5.393-.476,6.425-2.655l3.664-9.472Z" transform="translate(-526.382 -374.648)" fill="#1a1311"/>
        <path id="패스_10" data-name="패스 10" d="M727.813,398.479h-5.788c-.431,0-.118-.807-.118-.807s.33-.854.761-.854h8.386l1.1-2.842h-8.763c-2.013,0-3.419,2.022-4.108,3.7-.472,1.3-.773,3.72,1.308,3.649h5.788c.431,0,.112.823.112.823s-.33.854-.761.854h-8.386l-1.1,2.842h8.777c2.009,0,3.408-2.027,4.094-3.7.473-1.31.769-3.736-1.3-3.665" transform="translate(-655.872 -374.648)" fill="#1a1311"/>
        <path id="패스_11" data-name="패스 11" d="M879.338,403l.893-2.31h7.952l1.1-2.209h-8.2l.643-1.662h8.2l1.1-2.842H880.377l-4.588,11.864H891.4L892.831,403Z" transform="translate(-802.913 -374.648)" fill="#1a1311"/>
        <path id="패스_12" data-name="패스 12" d="M-23.718,157.259-28.685,142l-4.967,15.259H-54l14.147,11.592-6.436,18.544,13.78-9.319L-30.5,173.5l-10.763,7.072,4.355-12.547-10.081-8.26H-31.83l3.145-9.661,3.145,9.661h66.4l1.978-2.5Z" transform="translate(54 -142.384)" fill="#b40019"/>
      </g>
    </g>
  </g>
</svg>
